<svg height="512pt" viewBox="0 -4 512 511" width="512pt" xmlns="http://www.w3.org/2000/svg"><path d="m503.464844 41.703125v402.53125c0 28.277344-22.921875 51.199219-51.199219 51.199219h-392.53125c-28.277344 0-51.199219-22.921875-51.199219-51.199219v-392.535156c0-28.277344 22.921875-51.199219 51.199219-51.199219h402.53125c4.523437 0 8.867187 1.796875 12.066406 5l24.136719 24.132812c3.199219 3.203126 4.996094 7.542969 4.996094 12.070313zm0 0" fill="#2980ba"/><path d="m76.800781.5h358.398438v187.734375c0 18.851563-15.28125 34.132813-34.132813 34.132813h-290.132812c-18.851563 0-34.132813-15.28125-34.132813-34.132813zm0 0" fill="#285680"/><path d="m145.066406.5h290.132813v187.734375c0 18.851563-15.28125 34.132813-34.132813 34.132813h-221.867187c-18.851563 0-34.132813-15.28125-34.132813-34.132813zm0 0" fill="#d1d4d1"/><path d="m307.199219.5h85.335937v145.066406c0 9.425782-7.644531 17.066406-17.070312 17.066406h-51.199219c-9.425781 0-17.066406-7.640624-17.066406-17.066406zm0 0" fill="#a5a5a4"/><path d="m93.867188 265.035156h324.265624c9.425782 0 17.066407 7.640625 17.066407 17.066406v213.332032h-358.398438v-213.332032c0-9.425781 7.640625-17.066406 17.066407-17.066406zm0 0" fill="#90bae1"/><path d="m213.332031 324.765625c0 14.140625-11.460937 25.601563-25.597656 25.601563-14.140625 0-25.601563-11.460938-25.601563-25.601563 0-14.136719 11.460938-25.597656 25.601563-25.597656 14.136719 0 25.597656 11.460937 25.597656 25.597656zm0 0" fill="#2c3e50"/><path d="m187.734375 316.234375c0 4.710937-3.820313 8.53125-8.535156 8.53125-4.710938 0-8.53125-3.820313-8.53125-8.53125 0-4.714844 3.820312-8.535156 8.53125-8.535156 4.714843 0 8.535156 3.820312 8.535156 8.535156zm0 0" fill="#fff"/><path d="m349.867188 324.765625c0 14.140625-11.460938 25.601563-25.601563 25.601563-14.136719 0-25.597656-11.460938-25.597656-25.601563 0-14.136719 11.460937-25.597656 25.597656-25.597656 14.140625 0 25.601563 11.460937 25.601563 25.597656zm0 0" fill="#2c3e50"/><path d="m324.265625 316.234375c0 4.710937-3.820313 8.53125-8.53125 8.53125-4.714844 0-8.535156-3.820313-8.535156-8.53125 0-4.714844 3.820312-8.535156 8.535156-8.535156 4.710937 0 8.53125 3.820312 8.53125 8.535156zm0 0" fill="#fff"/><path d="m324.265625 394.929688c-1.042969 36.949218-31.300781 66.363281-68.265625 66.363281s-67.222656-29.414063-68.265625-66.363281c.003906-6.425782.960937-12.816407 2.84375-18.964844h130.84375c1.882813 6.148437 2.839844 12.539062 2.84375 18.964844zm0 0" fill="#2c3e50"/><path d="m300.96875 444.746094c-25.914062 22.070312-64.023438 22.070312-89.9375 0l1.449219-1.792969c9.300781-15.113281 25.773437-24.320313 43.519531-24.320313s34.21875 9.207032 43.519531 24.320313zm0 0" fill="#fb7b76"/><path d="m503.464844 503.964844h-494.929688c-4.714844 0-8.535156-3.820313-8.535156-8.53125 0-4.714844 3.820312-8.535156 8.535156-8.535156h494.929688c4.714844 0 8.535156 3.820312 8.535156 8.535156 0 4.710937-3.820312 8.53125-8.535156 8.53125zm0 0" fill="#2c3e50"/></svg>